<svg width="1024" height="1024" viewBox="0 0 1024 1024" fill="none" xmlns="http://www.w3.org/2000/svg">
<path d="M1024 0H0V1024H1024V0Z" fill="#050507"/>
<path d="M512 696.32C613.797 696.32 696.32 613.797 696.32 512C696.32 410.203 613.797 327.68 512 327.68C410.203 327.68 327.68 410.203 327.68 512C327.68 613.797 410.203 696.32 512 696.32Z" stroke="#6366F1" stroke-width="4"/>
<path d="M512 839.68C692.973 839.68 839.68 692.973 839.68 512C839.68 331.027 692.973 184.32 512 184.32C331.027 184.32 184.32 331.027 184.32 512C184.32 692.973 331.027 839.68 512 839.68Z" stroke="#6366F1" stroke-width="4"/>
<path d="M655.36 655.36L360.448 524.288L446.464 495.616L342.016 391.168L366.592 366.592L655.36 655.36Z" fill="#EDEDF0"/>
<path d="M655.36 655.36L524.288 360.448L495.616 446.464L391.168 342.016L342.016 391.168L446.464 495.616L360.448 524.288L655.36 655.36Z" stroke="#EDEDF0" stroke-width="8"/>
</svg>
